<?xml version="1.0" encoding="UTF-8" standalone="no"?>
<svg
   xmlns:dc="http://purl.org/dc/elements/1.1/"
   xmlns:cc="http://creativecommons.org/ns#"
   xmlns:rdf="http://www.w3.org/1999/02/22-rdf-syntax-ns#"
   xmlns:svg="http://www.w3.org/2000/svg"
   xmlns="http://www.w3.org/2000/svg"
   xmlns:xlink="http://www.w3.org/1999/xlink"
   xmlns:sodipodi="http://sodipodi.sourceforge.net/DTD/sodipodi-0.dtd"
   xmlns:inkscape="http://www.inkscape.org/namespaces/inkscape"
   version="1.1"
   viewBox="293 215 311 313"
   width="311pt"
   height="313pt"
   id="svg34"
   sodipodi:docname="EDI-logo.svg"
   inkscape:version="0.92.3 (2405546, 2018-03-11)">
  <sodipodi:namedview
     pagecolor="#ffffff"
     bordercolor="#666666"
     borderopacity="1"
     objecttolerance="10"
     gridtolerance="10"
     guidetolerance="10"
     inkscape:pageopacity="0"
     inkscape:pageshadow="2"
     inkscape:window-width="1977"
     inkscape:window-height="1468"
     id="namedview36"
     showgrid="false"
     inkscape:zoom="0.56549521"
     inkscape:cx="207.33333"
     inkscape:cy="208.66667"
     inkscape:window-x="1055"
     inkscape:window-y="193"
     inkscape:window-maximized="0"
     inkscape:current-layer="g32" />
  <metadata
     id="metadata2"> Produced by OmniGraffle 6.6.1 <dc:date>2016-08-03 03:28:53 +0000</dc:date>
<rdf:RDF>
  <cc:Work
     rdf:about="">
    <dc:format>image/svg+xml</dc:format>
    <dc:type
       rdf:resource="http://purl.org/dc/dcmitype/StillImage" />
    <dc:title></dc:title>
  </cc:Work>
</rdf:RDF>
</metadata>
  <defs
     id="defs10">
    <linearGradient
       x1="0"
       x2="1"
       id="Gradient"
       gradientUnits="userSpaceOnUse">
      <stop
         offset="0"
         stop-color="#68bc36"
         id="stop4" />
      <stop
         offset="1"
         stop-color="#d74737"
         id="stop6" />
    </linearGradient>
    <linearGradient
       id="Obj_Gradient"
       xlink:href="#Gradient"
       gradientTransform="matrix(124.23426,191.30398,-191.30398,124.23426,386.69537,276.05686)" />
  </defs>
  <g
     id="g32"
     style="fill:none;fill-opacity:1;stroke:none;stroke-dasharray:none;stroke-opacity:1">
    <title
       id="title12">Canvas 3</title>
    <path
       style="fill:url(#Obj_Gradient)"
       inkscape:connector-curvature="0"
       id="path16"
       d="m 390.18956,281.42145 6.62076,-3.97864 6.88178,-3.50789 7.10933,-3.02032 7.30243,-2.5177 7.45986,-2.0031 7.58153,-1.47884 7.66595,-0.94726 7.71327,-0.41092 7.72323,0.12685 7.69575,0.66473 7.63042,1.19889 7.52865,1.72736 7.39008,2.24762 7.2157,2.75661 7.00617,3.25224 6.76259,3.73244 6.48634,4.19444 6.17847,4.63588 5.84041,5.05479 5.47462,5.44933 5.08155,5.81734 4.66428,6.157 4.22404,6.46703 3.7635,6.74535 3.28471,6.99112 2.78968,7.20292 2.28138,7.37965 1.76199,7.52057 1.23407,7.62516 0.69988,7.69246 0.16269,7.72255 -0.37567,7.71506 -0.91184,7.67023 -1.44391,7.5882 -1.96895,7.46898 -2.48417,7.31399 -2.9876,7.12308 -3.47619,6.89803 -3.94814,6.6388 -4.40092,6.34807 -4.8324,6.02583 -5.24023,5.67492 -5.62273,5.29612 -5.97778,4.89188 -6.30404,4.46353 -6.59952,4.01379 -6.86306,3.54442 -7.09325,3.05776 -7.28887,2.55649 -7.4494,2.04281 -7.57342,1.51898 -7.66081,0.98772 -7.71087,0.45206 -7.724,-0.0861 -7.69897,-0.62374 -7.63695,-1.15848 -7.53765,-1.68752 -7.40195,-2.20809 -7.23002,-2.71848 -7.02336,-3.21523 -6.78233,-3.6965 -6.50842,-4.1597 -6.20293,-4.60314 -5.86728,-5.02374 -5.50332,-5.42029 -5.1125,-5.79013 -4.69682,-6.13223 -4.25828,-6.44449 -3.79916,-6.7254 -3.32166,-6.97354 -2.82805,-7.18796 -2.32054,-7.36752 -1.80178,-7.51105 -1.27441,-7.61853 -0.74068,-7.68855 -0.20367,-7.72178 0.33456,-7.71691 0.87129,-7.67491 1.40372,-7.59555 1.92926,-7.47965 2.4454,-7.3269 2.94957,-7.1389 3.43959,-6.91615 3.91278,-6.6599 4.36741,-6.37118 4.80019,-6.05142 5.21006,-5.70266 5.59455,-5.32596 -5.13411,-5.78382 22.56128,2.20384 -2.02474,20.93164 -5.13422,-5.78402 -4.81382,4.58287 -4.48299,4.90683 -4.13056,5.20723 -3.75779,5.48219 -3.36695,5.73046 -2.95965,5.95116 -2.53817,6.14282 -2.10416,6.30458 -1.6599,6.43574 -1.20785,6.53573 -0.74972,6.60403 -0.288,6.64037 0.17526,6.64413 0.63725,6.61584 1.09667,6.55546 1.55058,6.46304 1.99664,6.3394 2.43333,6.18506 2.85807,6.00052 3.2692,5.78686 3.66424,5.54518 4.0413,5.27664 4.39921,4.98226 4.7352,4.66392 5.0487,4.32271 5.33743,3.96085 5.60022,3.57943 5.83594,3.18074 6.04346,2.76665 6.22124,2.33895 6.36902,1.90003 6.48602,1.45196 6.57122,0.99684 6.62465,0.53673 6.64604,0.0741 6.63524,-0.38889 6.59184,-0.85 6.51669,-1.30709 6.40981,-1.75771 6.2719,-2.1996 6.10347,-2.6312 5.90532,-3.05001 5.67871,-3.45362 5.42446,-3.84064 5.14367,-4.20932 4.8382,-4.55709 4.5091,-4.88298 4.15798,-5.18533 3.7867,-5.46208 3.39729,-5.71262 2.99133,-5.93531 2.5705,-6.12927 2.1376,-6.29338 1.69426,-6.42678 1.2424,-6.52933 0.78474,-6.60012 0.3231,-6.63841 -0.1399,-6.64506 -0.60212,-6.61907 -1.06183,-6.56122 -1.51625,-6.47121 -1.96304,-6.34993 -2.40046,-6.19789 -2.82635,-6.01556 -3.23841,-5.80415 -3.63457,-5.5646 -4.01357,-5.29783 -4.37244,-5.00574 -4.7107,-4.68883 -5.02546,-4.3496 -5.31633,-3.98899 -5.5814,-3.60904 -5.819,-3.2116 -6.02855,-2.79863 -6.2087,-2.37213 -6.35895,-1.93376 -6.47807,-1.4865 -6.56598,-1.0315 -6.62179,-0.5718 -6.64553,-0.1095 -6.63707,0.35392 -6.59628,0.81508 -6.52344,1.2723 -6.41909,1.72348 -6.2835,2.16661 -6.11729,2.59883 -5.92156,3.01841 -5.69689,3.42354 z" />
    <path
       style="stroke:#2d2d2d;stroke-width:15;stroke-linecap:square;stroke-linejoin:round"
       inkscape:connector-curvature="0"
       id="path18"
       d="m 418,316.5 c -38.5,15.75 -48.364,35.5978 -47.86404,56.01242 C 370.6359,392.92704 380,414.5 418.5,427.75" />
    <line
       style="stroke:#2d2d2d;stroke-width:15;stroke-linecap:square;stroke-linejoin:round"
       id="line20"
       y2="370.57068"
       x2="419.75"
       y1="370.57068"
       x1="373.88596" />
    <circle
       style="fill:#d34a37"
       id="circle22"
       r="9.5625153"
       cy="317.0625"
       cx="493.3125" />
    <path
       style="stroke:#2d2d2d;stroke-width:15;stroke-linecap:square;stroke-linejoin:round"
       inkscape:connector-curvature="0"
       id="path24"
       d="m 443.6875,316.875 c 38.5,15.75 48.364,35.5978 47.86404,56.01242 -0.49994,20.41462 -9.86404,41.98758 -48.36404,55.23758" />
    <line
       style="stroke:#2d2d2d;stroke-width:15;stroke-linecap:square;stroke-linejoin:round"
       id="line26"
       y2="416.60547"
       x2="448.8125"
       y1="330.375"
       x1="448.8125" />
    <path
       style="stroke:#2d2d2d;stroke-width:15;stroke-linecap:square;stroke-linejoin:round"
       inkscape:connector-curvature="0"
       id="path28"
       d="m 507.75,328.75 c 17.25,14.75 23,31.5 22.25,48.25 -0.75,16.75 -10,34 -35,49" />
  </g>
</svg>
